
<svg width="50px" height="48px" viewBox="0 0 50 48" version="1.1" xmlns="http://www.w3.org/2000/svg" xmlns:xlink="http://www.w3.org/1999/xlink">
    <!-- Generator: Sketch 51.3 (57544) - http://www.bohemiancoding.com/sketch -->
    <desc>Created with Sketch.</desc>
    <defs></defs>
    <g id="Page-1" stroke="none" stroke-width="1" fill="none" fill-rule="evenodd">
        <g id="Home_3-Trial" transform="translate(-258.000000, -198.000000)" fill="#5FCCCA">
            <g id="Group-6" transform="translate(258.000000, 198.000000)">
                <g id="ic_favorites">
                    <g id="ic_pets">
                        <g id="Icon-24px">
                            <circle id="Oval" cx="6.25" cy="16.25" r="6.25"></circle>
                            <circle id="Oval" cx="17.5" cy="6.25" r="6.25"></circle>
                            <circle id="Oval" cx="32.5" cy="6.25" r="6.25"></circle>
                            <circle id="Oval" cx="43.75" cy="16.25" r="6.25"></circle>
                            <path d="M38.35,29.65 C36.175,27.1 34.35,24.925 32.15,22.375 C31,21.025 29.525,19.675 27.775,19.075 C27.5,18.975 27.225,18.9 26.95,18.85 C26.325,18.75 25.65,18.75 25,18.75 C24.35,18.75 23.675,18.75 23.025,18.875 C22.75,18.925 22.475,19 22.2,19.1 C20.45,19.7 19,21.05 17.825,22.4 C15.65,24.95 13.825,27.125 11.625,29.675 C8.35,32.95 4.325,36.575 5.075,41.65 C5.8,44.2 7.625,46.725 10.9,47.45 C12.725,47.825 18.55,46.35 24.75,46.35 L25.2,46.35 C31.4,46.35 37.225,47.8 39.05,47.45 C42.325,46.725 44.15,44.175 44.875,41.65 C45.65,36.55 41.625,32.925 38.35,29.65 L38.35,29.65 Z" id="Shape"></path>
                        </g>
                    </g>
                </g>
            </g>
        </g>
    </g>
</svg>