
<svg width="38px" height="42px" viewBox="0 0 38 42" version="1.1" xmlns="http://www.w3.org/2000/svg" xmlns:xlink="http://www.w3.org/1999/xlink">
    <!-- Generator: Sketch 51.3 (57544) - http://www.bohemiancoding.com/sketch -->
    <desc>Created with Sketch.</desc>
    <defs></defs>
    <g id="Page-1" stroke="none" stroke-width="1" fill="none" fill-rule="evenodd">
        <g id="Sign-Up_1" transform="translate(-34.000000, -46.000000)">
            <g id="LogoColor" transform="translate(34.000000, 46.000000)">
                <path d="M32.5,6 C33.8805842,6 35,7.34295533 35,9 C35,10.656701 33.8805842,12 32.5,12 C31.1194158,12 30,10.656701 30,9 C30,7.34295533 31.1194158,6 32.5,6" id="Fill-1" fill="#4B4B49"></path>
                <path d="M8.49756346,12.0256196 C7.08937503,12.0189353 5.95308045,10.8245768 5.95949854,9.35798593 C5.96591664,7.89139508 7.11271356,6.70797446 8.52090199,6.71465873 C9.92675656,6.72134301 11.0621759,7.91175174 11.0589669,9.37621577 C11.0572165,10.8409836 9.91567076,12.0271387 8.50923272,12.0256196 L8.49756346,12.0256196 Z M8.49756346,0 C3.79922605,0.0051651221 -0.00524573934,3.97623253 5.42945463e-06,8.86942614 C0.00146408745,10.3585005 0.363503002,11.8232683 1.05257304,13.1285251 L6.5167059,22.8662994 C7.25274472,24.0287557 8.754579,24.3499047 9.87103583,23.5833399 C10.1525568,23.3897997 10.3923602,23.1373164 10.5746924,22.8419929 L16.1175928,12.7851964 C18.1990978,8.39848854 16.4723385,3.08509705 12.2603176,0.916961089 C11.0901822,0.314768618 9.80277063,0.000911492136 8.49756346,0 Z" id="Fill-3" fill="#00A19E"></path>
                <path d="M37.7160072,36.7599915 C37.2524147,36.1561234 36.3944053,36.0467847 35.7976935,36.5153792 C33.1324,38.6166868 30.7228816,39.5040692 28.6447084,39.1678011 C26.7089554,38.8495105 24.8865574,37.4230969 23.2298319,34.9298204 L26.1654332,29.7752806 C26.8493411,28.5687234 26.4389383,27.0282558 25.2490024,26.3350895 C24.8731873,26.1161174 24.4479611,26.0005897 24.0145966,26.0000002 L17.8788991,26.0000002 C16.5078861,25.9994108 15.3961361,27.1258059 15.3955548,28.515675 C15.3952641,28.9577453 15.5100723,29.392153 15.7280625,29.7752806 L18.713075,35.0123402 C17.0708821,37.4496212 15.2717364,38.8436162 13.3563291,39.1619068 C11.2781559,39.5040692 8.87154412,38.6137396 6.20334409,36.509485 C5.6069229,36.0408904 4.74891348,36.1511133 4.28648361,36.7555708 C3.82434438,37.360323 3.93275818,38.2303173 4.52917936,38.6992066 C7.31654737,40.8948224 9.98184086,41.9999982 12.4669291,41.9999982 C12.9116291,42.0002929 13.3557478,41.9649273 13.7952161,41.8939013 C16.4895749,41.4488839 18.9136259,39.6396375 21.0005188,36.5212735 C23.0874116,39.6396375 25.5114626,41.4488839 28.2058215,41.8939013 C28.6452897,41.9646325 29.0891178,42.0002929 29.5341084,41.9999982 C32.0221032,41.9999982 34.6844902,40.8948224 37.4718582,38.6992066 C38.0659541,38.2312015 38.1752399,37.3644489 37.7160072,36.7599915" id="Fill-5" fill="#4B4B49"></path>
            </g>
        </g>
    </g>
</svg>