
<svg width="178px" height="31px" viewBox="0 0 178 31" version="1.1" xmlns="http://www.w3.org/2000/svg" xmlns:xlink="http://www.w3.org/1999/xlink">
    <!-- Generator: Sketch 51.3 (57544) - http://www.bohemiancoding.com/sketch -->
    <desc>Created with Sketch.</desc>
    <defs></defs>
    <g id="Page-1" stroke="none" stroke-width="1" fill="none" fill-rule="evenodd" opacity="0.915736607">
        <g id="Sign-Up_1" transform="translate(-101.000000, -54.000000)" fill="#00A19E">
            <path d="M112,78 C109.806257,78 107.884149,77.5088257 106.233618,76.5264624 C104.583088,75.5440991 103.308646,74.1880309 102.410256,72.4582173 C101.511866,70.7284036 101.041786,68.742351 101,66.5 C101.041786,64.257649 101.511866,62.2715964 102.410256,60.5417827 C103.308646,58.8119691 104.583088,57.4559009 106.233618,56.4735376 C107.884149,55.4911743 109.806257,55 112,55 C114.193743,55 116.110628,55.4911743 117.750712,56.4735376 C119.390796,57.4559009 120.665238,58.8173079 121.574074,60.5577994 C122.482911,62.298291 122.958214,64.2790047 123,66.5 C122.958214,68.7209953 122.482911,70.701709 121.574074,72.4422006 C120.665238,74.1826921 119.390796,75.5440991 117.750712,76.5264624 C116.110628,77.5088257 114.193743,78 112,78 Z M112.5,75 C114.243598,75 115.758327,74.6058434 117.044231,73.8175182 C118.330135,73.0291931 119.310894,71.9562112 119.986538,70.5985401 C120.662183,69.2408691 121,67.7080377 121,66 C121,64.2919623 120.662183,62.7591309 119.986538,61.4014599 C119.310894,60.0437888 118.330135,58.9708069 117.044231,58.1824818 C115.758327,57.3941566 114.243598,57 112.5,57 C110.734607,57 109.214429,57.3941566 107.939423,58.1824818 C106.664417,58.9708069 105.689106,60.0437888 105.013462,61.4014599 C104.337817,62.7591309 104,64.2919623 104,66 C104,67.7080377 104.337817,69.2408691 105.013462,70.5985401 C105.689106,71.9562112 106.664417,73.0291931 107.939423,73.8175182 C109.214429,74.6058434 110.734607,75 112.5,75 Z M128.480263,78 C128.063594,78 127.712721,77.8594609 127.427632,77.5783784 C127.142542,77.2972959 127,76.9513534 127,76.5405405 L127,55.4918919 C127,55.081079 127.142542,54.7297312 127.427632,54.4378378 C127.712721,54.1459445 128.063594,54 128.480263,54 C128.896932,54 129.253288,54.1459445 129.549342,54.4378378 C129.845396,54.7297312 129.993421,55.081079 129.993421,55.4918919 L129.993421,63.9567568 C130.826759,63.0486441 131.725872,62.324327 132.690789,61.7837838 C133.655707,61.2432405 134.796046,60.972973 136.111842,60.972973 C137.317988,60.972973 138.365127,61.2540512 139.253289,61.8162162 C140.141452,62.3783812 140.82127,63.1459411 141.292763,64.1189189 C141.764257,65.0918968 142,66.1621563 142,67.3297297 L142,76.5405405 C142,76.9513534 141.851975,77.2972959 141.555921,77.5783784 C141.259867,77.8594609 140.903511,78 140.486842,78 C140.070173,78 139.7193,77.8594609 139.434211,77.5783784 C139.149121,77.2972959 139.006579,76.9513534 139.006579,76.5405405 L139.006579,67.6540541 C139.006579,65.016203 137.800451,63.6972973 135.388158,63.6972973 C134.291661,63.6972973 133.310311,63.9783756 132.444079,64.5405405 C131.577847,65.1027055 130.760969,65.8594547 129.993421,66.8108108 L129.993421,76.5405405 C129.993421,76.9513534 129.845396,77.2972959 129.549342,77.5783784 C129.253288,77.8594609 128.896932,78 128.480263,78 Z M157.457254,78 C157.047062,78 156.701642,77.8592293 156.420984,77.5776836 C156.140327,77.296138 156,76.9496254 156,76.5381356 L156,57.1440678 C156,56.5593191 156.205093,56.0557931 156.615285,55.6334746 C157.025477,55.2111561 157.522018,55 158.104922,55 L159.173575,55 C159.605356,55 159.999351,55.1299422 160.35557,55.3898305 C160.711789,55.6497188 160.976251,55.9745743 161.148964,56.3644068 L168.5,74.7514124 L175.851036,56.3644068 C176.023749,55.9745743 176.288211,55.6497188 176.64443,55.3898305 C177.000649,55.1299422 177.394644,55 177.826425,55 L178.895078,55 C179.477982,55 179.974523,55.2111561 180.384715,55.6334746 C180.794907,56.0557931 181,56.5593191 181,57.1440678 L181,76.5381356 C181,76.9496254 180.859673,77.296138 180.579016,77.5776836 C180.298358,77.8592293 179.952938,78 179.542746,78 C179.132554,78 178.781737,77.8592293 178.490285,77.5776836 C178.198833,77.296138 178.053109,76.9496254 178.053109,76.5381356 L178.053109,58.0861582 L170.572539,76.6355932 C170.399826,77.047083 170.12457,77.3773528 169.746762,77.6264124 C169.368953,77.8754721 168.95337,78 168.5,78 C168.04663,78 167.631047,77.8754721 167.253238,77.6264124 C166.87543,77.3773528 166.600174,77.047083 166.427461,76.6355932 L158.946891,58.0861582 L158.946891,76.5381356 C158.946891,76.9496254 158.801167,77.296138 158.509715,77.5776836 C158.218263,77.8592293 157.867446,78 157.457254,78 Z M190.164948,85 C189.793813,85 189.479383,84.8613347 189.221649,84.584 C188.963916,84.3066653 188.835052,83.9760019 188.835052,83.592 C188.835052,83.4213325 188.865979,83.2506675 188.927835,83.08 L190.938144,77.736 L185.123711,63.08 C185.041237,62.8666656 185,62.664001 185,62.472 C185,62.0666646 185.134019,61.7200014 185.402062,61.432 C185.670104,61.1439986 185.999998,61 186.391753,61 C186.680414,61 186.943298,61.0853325 187.180412,61.256 C187.417527,61.4266675 187.587628,61.6399987 187.690722,61.896 L192.453608,74.12 L197.309278,61.96 C197.577321,61.3199968 198.010306,61 198.608247,61 C199.000002,61 199.329896,61.1439986 199.597938,61.432 C199.865981,61.7200014 200,62.0666646 200,62.472 C200,62.664001 199.969072,62.8453325 199.907216,63.016 L191.463918,84.008 C191.175256,84.6693366 190.742271,85 190.164948,85 Z M213.427379,77 C213.025596,77 212.687258,76.8634207 212.412354,76.5902579 C212.13745,76.3170951 212,75.9808998 212,75.5816619 L212,56.4498567 C212,56.0506188 212.13745,55.7091705 212.412354,55.4255014 C212.687258,55.1418324 213.025596,55 213.427379,55 L219.803005,55 C222.213702,55 224.259591,55.5305582 225.940735,56.5916905 C227.621878,57.6528229 228.88536,59.0238693 229.731219,60.7048711 C230.577077,62.3858728 231,64.1508981 231,66 C231,67.8491019 230.577077,69.6141272 229.731219,71.2951289 C228.88536,72.9761307 227.621878,74.3471771 225.940735,75.4083095 C224.259591,76.4694418 222.213702,77 219.803005,77 L213.427379,77 Z M219.478469,75 C221.178637,75 222.671445,74.6404708 223.956938,73.9214015 C225.242431,73.2023323 226.237636,72.2042362 226.942584,70.9270833 C227.647531,69.6499305 228,68.1742508 228,66.5 C228,64.8257492 227.647531,63.3500695 226.942584,62.0729167 C226.237636,60.7957638 225.242431,59.7976677 223.956938,59.0785985 C222.671445,58.3595292 221.178637,58 219.478469,58 L215,58 L215,75 L219.478469,75 Z M243,78 C241.395825,78 239.989589,77.6471733 238.78125,76.9415094 C237.572911,76.2358455 236.640628,75.23617 235.984375,73.9424528 C235.328122,72.6487357 235,71.1679329 235,69.5 C235,67.8320671 235.328122,66.3512643 235.984375,65.0575472 C236.640628,63.76383 237.572911,62.7641545 238.78125,62.0584906 C239.989589,61.3528267 241.395825,61 243,61 C244.583341,61 245.979161,61.3528267 247.1875,62.0584906 C248.395839,62.7641545 249.33333,63.76383 250,65.0575472 C250.66667,66.3512643 251,67.8320671 251,69.5 C251,71.1679329 250.66667,72.6487357 250,73.9424528 C249.33333,75.23617 248.395839,76.2358455 247.1875,76.9415094 C245.979161,77.6471733 244.583341,78 243,78 Z M242.5,75 C243.411116,75 244.283329,74.7912109 245.116667,74.3736264 C245.950004,73.9560419 246.638886,73.2967078 247.183333,72.3956044 C247.727781,71.494501 248,70.3516553 248,68.967033 C248,67.6043888 247.727781,66.472532 247.183333,65.5714286 C246.638886,64.6703252 245.950004,64.0164855 245.116667,63.6098901 C244.283329,63.2032947 243.411116,63 242.5,63 C241.566662,63 240.683338,63.2032947 239.85,63.6098901 C239.016663,64.0164855 238.333336,64.6703252 237.8,65.5714286 C237.266664,66.472532 237,67.6043888 237,68.967033 C237,70.3516553 237.266664,71.494501 237.8,72.3956044 C238.333336,73.2967078 239.016663,73.9560419 239.85,74.3736264 C240.683338,74.7912109 241.566662,75 242.5,75 Z M262.539683,85 C261.312163,85 260.07408,84.8421068 258.825397,84.5263158 C257.576713,84.2105247 256.550269,83.8210549 255.746032,83.3578947 C255.365077,83.1263146 255.174603,82.7578973 255.174603,82.2526316 C255.174603,81.9157878 255.296295,81.6157908 255.539683,81.3526316 C255.78307,81.0894724 256.084654,80.9578947 256.444444,80.9578947 C256.613757,80.9578947 256.804232,80.9999996 257.015873,81.0842105 C258.624347,81.8842145 260.370361,82.2842105 262.253968,82.2842105 C265.49208,82.2842105 267.111111,80.5684382 267.111111,77.1368421 L267.111111,75.0210526 C265.608458,76.6210606 263.798952,77.4210526 261.68254,77.4210526 C260.433856,77.4210526 259.222228,77.1105294 258.047619,76.4894737 C256.87301,75.8684179 255.904766,74.9421114 255.142857,73.7105263 C254.380949,72.4789412 254,70.9789562 254,69.2105263 C254,67.4420964 254.380949,65.9421114 255.142857,64.7105263 C255.904766,63.4789412 256.87301,62.5526347 258.047619,61.9315789 C259.222228,61.3105232 260.433856,61 261.68254,61 C263.798952,61 265.608458,61.799992 267.111111,63.4 L267.111111,62.6105263 C267.111111,62.2105243 267.248676,61.8684225 267.52381,61.5842105 C267.798943,61.2999986 268.137564,61.1578947 268.539683,61.1578947 C268.941801,61.1578947 269.285713,61.2999986 269.571429,61.5842105 C269.857144,61.8684225 270,62.2105243 270,62.6105263 L270,76.7263158 C270,79.3789606 269.354504,81.4210455 268.063492,82.8526316 C266.77248,84.2842177 264.931229,85 262.539683,85 Z M262.279503,75 C263.252593,75 264.111798,74.7928458 264.857143,74.3785311 C265.602488,73.9642164 266.316767,73.4048999 267,72.700565 L267,66.299435 C266.316767,65.5951001 265.602488,65.0357836 264.857143,64.6214689 C264.111798,64.2071542 263.252593,64 262.279503,64 C260.7267,64 259.458597,64.4712759 258.475155,65.4138418 C257.491714,66.3564077 257,67.7184468 257,69.5 C257,71.2815532 257.491714,72.6435923 258.475155,73.5861582 C259.458597,74.5287241 260.7267,75 262.279503,75 Z M276.514563,71 C276.2233,71 275.990292,70.9163407 275.815534,70.7490196 C275.640776,70.5816985 275.543689,70.3620929 275.524272,70.0901961 L275,59.7372549 L275,56.6313725 C275,56.1712395 275.14563,55.7843153 275.436893,55.4705882 C275.728157,55.1568612 276.087377,55 276.514563,55 C276.94175,55 277.296115,55.1568612 277.57767,55.4705882 C277.859225,55.7843153 278,56.1712395 278,56.6313725 L278,59.7372549 L277.475728,70.0901961 C277.456311,70.3620929 277.364078,70.5816985 277.199029,70.7490196 C277.03398,70.9163407 276.805827,71 276.514563,71 Z M276.983193,78 C276.445375,78 275.980394,77.8039235 275.588235,77.4117647 C275.196076,77.0196059 275,76.5434202 275,75.9831933 C275,75.4453755 275.196076,74.9803941 275.588235,74.5882353 C275.980394,74.1960765 276.445375,74 276.983193,74 C277.54342,74 278.019606,74.1960765 278.411765,74.5882353 C278.803924,74.9803941 279,75.4453755 279,75.9831933 C279,76.5434202 278.803924,77.0196059 278.411765,77.4117647 C278.019606,77.8039235 277.54342,78 276.983193,78 Z" id="Oh-My-Dog!"></path>
        </g>
    </g>
</svg>