
<svg width="383px" height="409px" viewBox="0 0 383 409" version="1.1" xmlns="http://www.w3.org/2000/svg" xmlns:xlink="http://www.w3.org/1999/xlink">
    <!-- Generator: Sketch 51.3 (57544) - http://www.bohemiancoding.com/sketch -->
    <desc>Created with Sketch.</desc>
    <defs></defs>
    <g id="Page-1" stroke="none" stroke-width="1" fill="none" fill-rule="evenodd" opacity="0.096166">
        <g id="Sign-Up_1" transform="translate(-955.000000, -594.000000)" fill="#9B9B9B">
            <g id="paw" transform="translate(1147.372616, 796.209949) rotate(-2.000000) translate(-1147.372616, -796.209949) translate(864.372616, 522.709949)">
                <g transform="translate(281.868661, 272.644851) rotate(-34.000000) translate(-281.868661, -272.644851) translate(64.772771, 90.311518)" id="Group-13">
                    <g>
                        <path d="M213.176342,190.481865 C179.265811,190.481865 150.178012,202.864298 126.737295,227.299933 C93.6398993,261.779903 83.4953401,307.425826 83.8934958,315.969091 C84.7234542,333.93171 91.9519433,348.166765 104.221869,356.012506 C108.466994,358.735637 113.003726,360.108363 117.669438,360.108363 C128.997249,360.108363 141.396155,352.502569 155.763408,343.697036 C157.6925,342.519616 159.924416,340.996226 162.403075,339.31659 C174.274845,331.253221 192.191853,319.066094 211.404268,319.066094 C232.214915,319.066094 254.405086,334.082375 266.321719,342.151324 L270.022885,344.612186 C283.363906,353.350758 295.936654,361.592693 307.107446,361.592693 C311.296492,361.592693 315.367775,360.459915 319.22596,358.255741 C333.615644,350.12541 342.9695,339.818806 341.898405,315.924449 C340.776839,291.036819 314.358366,190.481865 213.176342,190.481865" id="Fill-1"></path>
                        <path d="M149.087946,156.292307 C150.96413,156.292307 152.840314,156.164047 154.716498,155.901951 C185.734957,151.630344 206.149625,113.252798 200.21396,70.3805837 C194.741757,30.9100411 167.782779,-0.000557651068 138.813605,-0.000557651068 C136.937421,-0.000557651068 135.066821,0.127702095 133.190637,0.389798097 C118.572037,2.41964798 105.768198,12.1562356 97.1355178,27.8373837 C88.1231339,44.198866 84.7672215,64.826379 87.6875912,85.9334719 C93.1653784,125.381708 120.124356,156.292307 149.087946,156.292307" id="Fill-3"></path>
                        <path d="M38.0016602,127.4729 C35.2320552,127.4729 32.4568664,127.82422 29.754268,128.498978 C6.24054534,134.532763 -5.66987271,164.55112 2.64452602,196.878152 C9.8868196,225.084143 29.8212746,244.780379 51.1293643,244.780379 C53.8989692,244.780379 56.6685742,244.429059 59.3767564,243.754301 C82.8681436,237.720516 94.7785616,207.702159 86.4864984,175.397433 C79.2442048,147.169136 59.3097499,127.4729 38.0016602,127.4729" id="Fill-6"></path>
                        <path d="M279.087395,155.902509 C310.211948,160.196422 340.292314,127.930732 346.116302,85.9117235 C349.036672,64.8269367 345.680759,44.1994237 336.673959,27.8379413 C328.035696,12.1567933 315.231857,2.39789959 300.613256,0.390355748 C298.742656,0.128259746 296.866472,0 294.990288,0 C266.021114,0 239.056553,30.9105987 233.589933,70.3811413 C227.654268,113.253355 248.068937,151.630902 279.087395,155.902509" id="Fill-9"></path>
                        <path d="M404.048508,128.499536 C401.34591,127.824778 398.576305,127.473458 395.801116,127.473458 C374.493027,127.473458 354.558572,147.169693 347.316278,175.39799 C339.024215,207.702717 350.934633,237.721074 374.42602,243.754858 C377.134202,244.429616 379.903807,244.780936 382.673412,244.780936 C403.981502,244.797666 423.921541,225.084701 431.15825,196.87871 C439.450314,164.551677 427.539896,134.53332 404.048508,128.499536" id="Fill-11"></path>
                    </g>
                </g>
            </g>
        </g>
    </g>
</svg>