
<svg width="30px" height="30px" viewBox="0 0 30 30" version="1.1" xmlns="http://www.w3.org/2000/svg" xmlns:xlink="http://www.w3.org/1999/xlink">
    <!-- Generator: Sketch 51.3 (57544) - http://www.bohemiancoding.com/sketch -->
    <desc>Created with Sketch.</desc>
    <defs></defs>
    <g id="Page-1" stroke="none" stroke-width="1" fill="none" fill-rule="evenodd">
        <g id="Home_4-Menu" transform="translate(-237.000000, -881.000000)" fill="#4B4B49">
            <g id="Group-3" transform="translate(72.000000, 723.000000)">
                <g id="Group-3-Copy-3" transform="translate(151.000000, 158.000000)">
                    <g id="Overrides/Cell/Add-Detail" transform="translate(14.000000, 0.000000)">
                        <path d="M15,30 C6.71572875,30 0,23.2842712 0,15 C0,6.71572875 6.71572875,0 15,0 C23.2842712,0 30,6.71572875 30,15 C30,23.2842712 23.2842712,30 15,30 Z M15,28.6363636 C22.5311557,28.6363636 28.6363636,22.5311557 28.6363636,15 C28.6363636,7.46884432 22.5311557,1.36363636 15,1.36363636 C7.46884432,1.36363636 1.36363636,7.46884432 1.36363636,15 C1.36363636,22.5311557 7.46884432,28.6363636 15,28.6363636 Z M14.3181818,14.3181818 L14.3181818,7.5 L15.6818182,7.5 L15.6818182,14.3181818 L22.5,14.3181818 L22.5,15.6818182 L15.6818182,15.6818182 L15.6818182,22.5 L14.3181818,22.5 L14.3181818,15.6818182 L7.5,15.6818182 L7.5,14.3181818 L14.3181818,14.3181818 Z" id="Contact-Add"></path>
                    </g>
                </g>
            </g>
        </g>
    </g>
</svg>