
<svg width="203px" height="31px" viewBox="0 0 203 31" version="1.1" xmlns="http://www.w3.org/2000/svg" xmlns:xlink="http://www.w3.org/1999/xlink">
    <!-- Generator: Sketch 51.3 (57544) - http://www.bohemiancoding.com/sketch -->
    <desc>Created with Sketch.</desc>
    <defs></defs>
    <g id="Page-1" stroke="none" stroke-width="1" fill="none" fill-rule="evenodd">
        <g id="Home_4-Menu" transform="translate(-621.000000, -281.000000)" fill="#00A19E">
            <g id="Group" transform="translate(621.000000, 281.000000)">
                <g id="Group-2">
                    <polygon id="Star" points="18.5 25.5 7.62597283 30.7532889 9.70272722 19.6266445 0.905454449 11.7467111 13.0629864 10.1233555 18.5 0 23.9370136 10.1233555 36.0945456 11.7467111 27.2972728 19.6266445 29.3740272 30.7532889"></polygon>
                    <polygon id="Star-Copy" points="101.5 25.5 90.6259728 30.7532889 92.7027272 19.6266445 83.9054544 11.7467111 96.0629864 10.1233555 101.5 0 106.937014 10.1233555 119.094546 11.7467111 110.297273 19.6266445 112.374027 30.7532889"></polygon>
                    <polygon id="Star-Copy-2" points="60.5 25.5 49.6259728 30.7532889 51.7027272 19.6266445 42.9054544 11.7467111 55.0629864 10.1233555 60.5 0 65.9370136 10.1233555 78.0945456 11.7467111 69.2972728 19.6266445 71.3740272 30.7532889"></polygon>
                    <polygon id="Star-Copy-3" points="142.5 25.5 131.625973 30.7532889 133.702727 19.6266445 124.905454 11.7467111 137.062986 10.1233555 142.5 0 147.937014 10.1233555 160.094546 11.7467111 151.297273 19.6266445 153.374027 30.7532889"></polygon>
                    <polygon id="Star-Copy-4" points="184.5 25.5 173.625973 30.7532889 175.702727 19.6266445 166.905454 11.7467111 179.062986 10.1233555 184.5 0 189.937014 10.1233555 202.094546 11.7467111 193.297273 19.6266445 195.374027 30.7532889"></polygon>
                </g>
            </g>
        </g>
    </g>
</svg>