<svg xmlns="http://www.w3.org/2000/svg" viewBox="0 0 789.62 139.13"><defs><style>.cls-1{fill:#fff;}</style></defs><title>Ресурс 8</title><g id="Слой_2" data-name="Слой 2"><g id="Слой_1-2" data-name="Слой 1"><path class="cls-1" d="M0,69.9Q0,48.52,11.91,36.62T45.07,24.71q21.78,0,33.57,11.7T90.43,69.18q0,15.3-5.15,25.1A36.66,36.66,0,0,1,70.4,109.52Q60.66,115,46.14,115q-14.78,0-24.44-4.7A36.81,36.81,0,0,1,6,95.38Q0,85.2,0,69.9ZM27,70q0,13.22,4.91,19t13.36,5.77q8.7,0,13.46-5.65t4.76-20.3q0-12.33-5-18T45,45.13a16.38,16.38,0,0,0-13.1,5.78Q27,56.69,27,70Z"/><path class="cls-1" d="M103.35,26.2h24.23V58.35A32.77,32.77,0,0,1,137.4,51,27.84,27.84,0,0,1,149,48.82q9.88,0,15.57,6t5.68,18.45v40.19H145.85V78.71q0-6-2.2-8.42a7.86,7.86,0,0,0-6.19-2.48,8.8,8.8,0,0,0-7.14,3.34q-2.74,3.33-2.74,12v30.37H103.35Z"/><path class="cls-1" d="M226.64,26.2h35.47l13.67,53.1,13.58-53.1h35.45v87.28H302.72V46.92l-17,66.56h-20l-17-66.56v66.56H226.64Z"/><path class="cls-1" d="M333.44,50.25H359l13,42.09,12.11-42.09H408L383,117.81q-4.27,11.55-8.75,15.6-6.3,5.73-19.22,5.72a138.91,138.91,0,0,1-16.18-1.42l-1.9-16.91a38.25,38.25,0,0,0,11.65,1.67,11.32,11.32,0,0,0,6.93-2c1.77-1.31,3.26-3.66,4.49-7Z"/><path class="cls-1" d="M463.07,24.71h40.06q11.85,0,19.14,3.22a31.22,31.22,0,0,1,12.06,9.22,38.37,38.37,0,0,1,6.9,14,64.91,64.91,0,0,1,2.15,16.91q0,14-3.19,21.7a35.86,35.86,0,0,1-8.84,12.92,29,29,0,0,1-12.14,6.94A63,63,0,0,1,503.13,112H463.07Zm27,19.77V92.16h6.61q8.46,0,12-1.87a12.7,12.7,0,0,0,5.59-6.55q2-4.68,2-15.15,0-13.87-4.53-19t-15-5.12Z"/><path class="cls-1" d="M553,80.55q0-14.46,9.76-23.84t26.38-9.38q19,0,28.69,11,7.8,8.87,7.8,21.85,0,14.58-9.67,23.9t-26.76,9.32q-15.24,0-24.65-7.74Q553,96.1,553,80.55Zm24.29-.06q0,8.46,3.42,12.51a11.24,11.24,0,0,0,17.21.06q3.36-4,3.36-12.8,0-8.22-3.39-12.24a10.56,10.56,0,0,0-8.4-4,11,11,0,0,0-8.75,4.08Q577.25,72.16,577.25,80.49Z"/><path class="cls-1" d="M681.25,48.76h22.69v59.71l0,2.8a26.3,26.3,0,0,1-2.53,11.34,23.85,23.85,0,0,1-6.72,8.72,26.43,26.43,0,0,1-10.66,4.83,66.39,66.39,0,0,1-14.79,1.49q-19,0-26.17-5.72a18.62,18.62,0,0,1-7.11-15.3c0-.79,0-1.87.12-3.21l23.51,2.67a7.65,7.65,0,0,0,2.74,4.53,11.6,11.6,0,0,0,6.73,1.84q5.24,0,7.83-2.79t2.59-9.77v-9.58a23.64,23.64,0,0,1-19.23,9.11q-12.69,0-20.48-11.08-5.54-7.84-5.54-20.77,0-14.76,7.15-22.51t18.69-7.74a23,23,0,0,1,21.13,10.78Zm-22.8,30.66q0,6.85,2.92,10.15a10.33,10.33,0,0,0,15.27-.12Q679.7,86,679.7,79.12t-3.21-10.56a10.06,10.06,0,0,0-7.86-3.66,9.12,9.12,0,0,0-7.41,3.36Q658.45,71.62,658.45,79.42Z"/><circle class="cls-1" cx="764.13" cy="99.78" r="12.75"/><path class="cls-1" d="M764.12,0a25.49,25.49,0,0,0-25.48,25.5c0,14.08,25.48,51.86,25.48,51.86s25.5-37.78,25.5-51.86A25.5,25.5,0,0,0,764.12,0Zm0,40.45A12.75,12.75,0,1,1,776.87,27.7,12.74,12.74,0,0,1,764.12,40.45Z"/></g></g></svg>