<svg xmlns="http://www.w3.org/2000/svg" viewBox="0 0 408.04 260.49"><defs><style>.cls-1{fill:#fff;}</style></defs><title>Ресурс 10</title><g id="Слой_2" data-name="Слой 2"><g id="Слой_1-2" data-name="Слой 1"><path class="cls-1" d="M0,45.19Q0,23.82,11.91,11.91T45.07,0Q66.85,0,78.64,11.7T90.43,44.47q0,15.3-5.15,25.09A36.66,36.66,0,0,1,70.4,84.8q-9.74,5.46-24.26,5.45-14.78,0-24.44-4.7A36.87,36.87,0,0,1,6,70.67Q0,60.49,0,45.19Zm27,.11q0,13.23,4.91,19t13.36,5.77q8.7,0,13.46-5.66t4.76-20.3q0-12.32-5-18T45,20.42a16.41,16.41,0,0,0-13.1,5.77Q27,32,27,45.3Z"/><path class="cls-1" d="M103.35,1.49h24.23V33.64a32.65,32.65,0,0,1,9.82-7.33A28,28,0,0,1,149,24.11q9.88,0,15.57,6t5.68,18.46V88.76H145.85V54q0-6-2.2-8.43a7.88,7.88,0,0,0-6.19-2.47,8.77,8.77,0,0,0-7.14,3.34q-2.74,3.33-2.74,12V88.76H103.35Z"/><path class="cls-1" d="M226.64,1.49h35.47l13.67,53.1,13.58-53.1h35.45V88.76H302.72V22.21l-17,66.55h-20l-17-66.55V88.76H226.64Z"/><path class="cls-1" d="M333.44,25.54H359l13,42.09,12.11-42.09H408L383,93.09q-4.27,11.56-8.75,15.61-6.3,5.72-19.22,5.72A137.23,137.23,0,0,1,338.8,113l-1.9-16.9a38.26,38.26,0,0,0,11.65,1.66,11.32,11.32,0,0,0,6.93-2c1.77-1.32,3.26-3.66,4.49-7Z"/><path class="cls-1" d="M3.75,147.56H43.82q11.84,0,19.14,3.21A31.11,31.11,0,0,1,75,160a38.15,38.15,0,0,1,6.91,14,64.86,64.86,0,0,1,2.14,16.91q0,14-3.18,21.7A36.06,36.06,0,0,1,72,225.51a28.79,28.79,0,0,1-12.14,6.94,62.41,62.41,0,0,1-16.07,2.38H3.75Zm27,19.76V215h6.61q8.45,0,12-1.88a12.71,12.71,0,0,0,5.6-6.55q2-4.67,2-15.15,0-13.87-4.52-19t-15-5.12Z"/><path class="cls-1" d="M93.64,203.4q0-14.47,9.77-23.85t26.37-9.37q19,0,28.7,11,7.78,8.88,7.79,21.85,0,14.58-9.67,23.9t-26.76,9.32q-15.24,0-24.65-7.74Q93.64,218.94,93.64,203.4Zm24.29-.06q0,8.44,3.43,12.5a11.21,11.21,0,0,0,17.2.06q3.36-4,3.37-12.8,0-8.22-3.4-12.23a10.56,10.56,0,0,0-8.39-4,11,11,0,0,0-8.75,4.08Q117.93,195,117.93,203.34Z"/><path class="cls-1" d="M221.94,171.61h22.68v59.71l.06,2.8a26.51,26.51,0,0,1-2.53,11.34,23.88,23.88,0,0,1-6.73,8.72A26.42,26.42,0,0,1,224.76,259,66.26,66.26,0,0,1,210,260.49q-19,0-26.16-5.72a18.6,18.6,0,0,1-7.12-15.3q0-1.18.12-3.21l23.52,2.68a7.6,7.6,0,0,0,2.73,4.52,11.61,11.61,0,0,0,6.73,1.85c3.49,0,6.11-.93,7.83-2.8s2.59-5.12,2.59-9.76v-9.59A23.6,23.6,0,0,1,201,232.27q-12.67,0-20.48-11.07Q175,213.34,175,200.42q0-14.76,7.14-22.5t18.69-7.74q7.38,0,12.18,2.5a26.58,26.58,0,0,1,9,8.27Zm-22.8,30.66q0,6.84,2.91,10.15a10.35,10.35,0,0,0,15.27-.12q3.08-3.42,3.07-10.33t-3.22-10.57a10.06,10.06,0,0,0-7.85-3.66,9.13,9.13,0,0,0-7.42,3.36Q199.14,194.48,199.14,202.27Z"/><circle class="cls-1" cx="299.21" cy="223.28" r="12.75"/><path class="cls-1" d="M299.21,123.5A25.5,25.5,0,0,0,273.72,149c0,14.08,25.49,51.86,25.49,51.86s25.5-37.78,25.5-51.86A25.5,25.5,0,0,0,299.21,123.5Zm0,40.45A12.75,12.75,0,1,1,312,151.2,12.74,12.74,0,0,1,299.21,164Z"/></g></g></svg>